<?xml version="1.0" encoding="UTF-8"?><svg id="a" xmlns="http://www.w3.org/2000/svg" viewBox="0 0 105.6 106.52"><path d="M97.42,40.83c9.28,14.92,9.68,35.88.53,49.55-9.14,13.67-27.87,15.26-46.36,15.13-18.42-.07-36.6-1.79-45.01-15.07S-.43,57.19,8.78,42.33c9.14-14.85,25.96-24.58,43.51-24.97s35.84,8.54,45.12,23.46h.01Z" fill="#483561" stroke="#f6daff" stroke-miterlimit="10" stroke-width="2"/><path d="M14.21,52.62c-.31,3.4-.05,6.97.88,10.27.86,3.03,2.5,6.25,5.63,7.39,2.81,1.03,6.22.07,8.1-2.23s2.51-5.41,2.75-8.33c.26-3.09.04-6.22-.35-9.3-.1-.8-.62-1.5-1.5-1.5-.73,0-1.6.69-1.5,1.5.3,2.37.49,4.76.45,7.15s-.27,5.17-1.33,7.28c-.99,1.97-2.65,3.15-5.01,2.78-.95-.15-1.86-.77-2.54-1.64-.78-.99-1.31-2.26-1.69-3.48-.97-3.17-1.2-6.6-.9-9.89.07-.81-.74-1.5-1.5-1.5-.87,0-1.43.69-1.5,1.5h.01,0Z" fill="#ffacac"/><path d="M39.49,61.44c-.3,3.74.9,8.02,4.35,10.01,2.87,1.65,6.4.83,8.08-2.07,1.23-2.13,1.34-4.75,1.07-7.14l-2.95.4c.75,3.38,2.95,7.81,6.9,8.08,4.38.31,5.48-5.07,5.52-8.37.02-1.93-2.98-1.93-3,0-.02,1.53-.14,3.17-.95,4.51-.25.41-.45.6-.85.79.24-.12-.27.07-.39.09.33-.05-.45-.05-.19-.01-.57-.1-.68-.16-1.19-.51-.29-.2-.79-.68-1.11-1.09-.97-1.25-1.5-2.78-1.84-4.3-.36-1.62-3.14-1.3-2.95.4.23,2,.25,4.25-.82,5.89-.61.94-1.61,1.33-2.59,1.18-.52-.08-.96-.26-1.59-.68-.4-.27-1.02-.93-1.34-1.42-1.08-1.69-1.32-3.73-1.16-5.77.16-1.92-2.85-1.91-3,0h0Z" fill="#ffacac"/><path d="M70.63,47.55c-.49,3.02-.76,6.1-.69,9.16s.46,6.67,2.07,9.49,4.3,4.14,7.4,3.79c4.27-.47,7.19-4.1,8.26-8.05,1.19-4.4.66-9.01.9-13.5.11-1.93-2.89-1.92-3,0-.19,3.52.13,7.08-.36,10.58-.43,3.06-1.8,6.8-5.09,7.82-1.16.36-2.41.3-3.45-.13-.76-.32-1.48-1.04-1.99-1.89-1.32-2.2-1.64-5.1-1.74-7.71-.1-2.95.13-6.09.57-8.77.13-.81-.21-1.6-1.05-1.85-.71-.2-1.72.25-1.85,1.05h.02,0Z" fill="#ffacac"/><path d="M85.17,2.68c.16,5.3.78,12.17-4.03,15.53,6.07-2.75,10.41,1.99,12.53,8.66-1.49-4.72-.39-14.33,5.71-15.63-5.98,1.28-11.6-5.37-14.2-8.55h-.01Z" fill="aqua"/><path d="M84.42,2.68c.16,4.94.91,11.56-3.66,14.88-.79.57-.13,1.68.76,1.3,6.01-2.61,9.8,3.22,11.42,8.21.3.91,1.73.53,1.45-.4-1.43-4.7-.61-13.35,5.18-14.71.95-.22.54-1.62-.4-1.45-5.61,1.07-10.32-4.51-13.48-8.36-.61-.75-1.67.32-1.06,1.06,3.59,4.37,8.65,9.94,14.93,8.74l-.4-1.45c-6.64,1.56-7.9,11.07-6.23,16.56l1.45-.4c-1.01-3.13-2.54-6.37-5.24-8.4-2.54-1.91-5.54-1.95-8.39-.71l.76,1.3c5.13-3.72,4.58-10.55,4.4-16.17-.03-.96-1.53-.97-1.5,0,0,0,.01,0,.01,0Z" fill="aqua"/><path d="M71.24.37c.48,2.17,2.98,4.12,5.22,3.78-2.15,1.69-2.19,4.91-1.81,7.07-.43-2.46-3.36-4.57-6.28-3.64,2.17-1.65,3.32-4.53,2.88-7.22" fill="#cbff47"/><path d="M70.87.47c.57,2.43,3.17,4.4,5.68,4.04l-.36-.63c-2.18,1.74-2.34,4.9-1.91,7.44l.72-.2c-.25-1.39-1.2-2.58-2.38-3.32-1.3-.81-2.9-1.04-4.36-.58l.29.69c2.32-1.78,3.51-4.75,3.05-7.64-.03-.2-.28-.31-.46-.26-.21.06-.29.26-.26.46.39,2.52-.69,5.24-2.71,6.79-.31.24-.15.82.29.69,1.28-.4,2.65-.2,3.79.51,1.03.64,1.81,1.67,2.03,2.87.09.48.8.27.72-.2-.39-2.3-.25-5.14,1.72-6.71.13-.1.14-.32.06-.45-.09-.16-.26-.2-.42-.17-2.1.3-4.29-1.53-4.75-3.52-.11-.47-.83-.27-.72.2h-.02Z" fill="#cbff47"/><path d="M3.44,76.92c.12-.52.27-1.04.45-1.54.09-.25.19-.5.28-.75.06-.15.05-.12-.03.08.03-.06.05-.12.08-.18.05-.11.1-.21.15-.32.45-.95,1.01-1.85,1.64-2.69.22-.29.24-.82.15-1.16-.1-.35-.36-.73-.69-.9-.35-.18-.77-.28-1.16-.15s-.65.36-.9.69c-1.37,1.8-2.35,3.92-2.87,6.12-.18.76.24,1.66,1.05,1.85s1.65-.23,1.85-1.05h0Z" fill="#ff94d6"/><path d="M8.72,77.64c.49-.97,1.07-1.89,1.74-2.76l-.23.3c.51-.65,1.06-1.26,1.65-1.84s.59-1.58,0-2.12-1.52-.58-2.12,0c-1.46,1.41-2.7,3.08-3.62,4.9-.35.7-.21,1.66.54,2.05.68.36,1.67.21,2.05-.54h-.01Z" fill="#ff94d6"/><path d="M15.75,77.16c.48-.91,1.02-1.79,1.61-2.64.11-.17.17-.36.18-.56.04-.2.04-.4-.03-.6-.1-.35-.36-.73-.69-.9-.35-.18-.77-.28-1.16-.15l-.36.15c-.23.13-.4.31-.54.54-.6.84-1.13,1.72-1.61,2.64-.19.36-.26.76-.15,1.16.1.35.36.73.69.9.35.18.77.28,1.16.15.36-.12.72-.34.9-.69h0Z" fill="#ff94d6"/><path d="M93.37,71.48c.15-.79.38-1.56.69-2.3l-.15.36c.1-.24.21-.47.32-.7.18-.36.26-.76.15-1.16-.1-.35-.36-.73-.69-.9-.35-.18-.77-.28-1.16-.15-.36.12-.72.34-.9.69-.53,1.06-.94,2.19-1.16,3.36-.08.4-.06.79.15,1.16.18.31.54.61.9.69.38.09.81.07,1.16-.15.31-.2.62-.52.69-.9h0Z" fill="#ff94d6"/><path d="M97.05,73.42c1.07-2.2,2.06-4.45,2.97-6.72.14-.34.02-.86-.15-1.16s-.54-.61-.9-.69c-.87-.2-1.53.27-1.85,1.05-.11.26-.21.53-.32.79-.06.15-.12.3-.19.45-.03.07-.17.41-.04.09-.22.53-.45,1.05-.68,1.57-.46,1.04-.94,2.08-1.44,3.1-.34.7-.22,1.65.54,2.05.67.36,1.69.22,2.05-.54h.01Z" fill="#ff94d6"/><path d="M103.01,72.62c.74-1.53,1.41-3.08,2.04-4.65.14-.34.02-.86-.15-1.16s-.54-.61-.9-.69c-.38-.09-.81-.07-1.16.15s-.54.51-.69.9c-.25.62-.49,1.24-.75,1.86l.15-.36c-.35.83-.74,1.63-1.14,2.44-.18.37-.26.75-.15,1.16.1.35.36.73.69.9.67.36,1.69.22,2.05-.54h.01Z" fill="#ff94d6"/></svg>